<svg width="563" height="528" viewBox="0 0 563 528" fill="none" xmlns="http://www.w3.org/2000/svg">
<path d="M107.555 291.996C118.327 239.177 134.055 221.496 167.555 210.996C197.055 210.996 227.055 243.496 227.055 296.996C227.055 338.996 195.055 394.496 161.555 383.996C132.055 383.996 103.055 350.496 107.555 291.996Z" fill="#080808"/>
<path d="M435.555 291.996C435.555 231.496 397.555 210.996 375.555 210.996C353.555 210.996 316.055 243.496 316.055 296.996C316.055 338.996 334.055 387.996 381.555 383.996C411.055 383.996 435.555 348.496 435.555 291.996Z" fill="#080808"/>
<path fill-rule="evenodd" clip-rule="evenodd" d="M237.555 4.49544C105.343 -22.0301 -8.44482 219.996 1.05517 320.496C1.05517 484.496 196.055 525.995 242.555 525.995C271.259 527.874 316.055 525.995 316.055 525.995C316.055 525.995 512.055 509.996 553.555 355.496C587.555 253.496 511.555 -12.5044 377.555 0.995566C360.555 6.49567 332.555 33.9956 345.055 83.4956C357.055 111.496 359.555 126.496 371.555 150.496C339.711 143.147 323.047 142.722 298.555 157.996C311.347 139.347 311.297 132.354 301.555 124.996C283.762 118.713 265.054 125.669 216.055 156.996L237.555 126.981L254.555 95.4955C274.155 50.6955 254.555 9.99554 237.555 4.49544ZM107.555 291.996C118.327 239.177 134.055 221.496 167.555 210.996C197.055 210.996 227.055 243.496 227.055 296.996C227.055 338.996 195.055 394.496 161.555 383.996C132.055 383.996 103.055 350.496 107.555 291.996ZM435.555 291.996C435.555 231.496 397.555 210.996 375.555 210.996C353.555 210.996 316.055 243.496 316.055 296.996C316.055 338.996 334.055 387.996 381.555 383.996C411.055 383.996 435.555 348.496 435.555 291.996Z" fill="url(#paint0_linear_3_66)"/>
<defs>
<linearGradient id="paint0_linear_3_66" x1="281.07" y1="0.500092" x2="281.07" y2="526.831" gradientUnits="userSpaceOnUse">
<stop stop-color="#00F666"/>
<stop offset="1" stop-color="#B9FFCE"/>
</linearGradient>
</defs>
</svg>
