<svg width="1038" height="240" viewBox="0 0 1038 240" fill="none" xmlns="http://www.w3.org/2000/svg">
  <path d="M979.151 193.313C972.148 193.313 965.84 192.066 960.228 189.571C954.663 187.029 950.25 183.287 946.988 178.347C943.774 173.406 942.167 167.314 942.167 160.07C942.167 153.834 943.318 148.678 945.621 144.6C947.923 140.523 951.065 137.261 955.047 134.814C959.028 132.368 963.513 130.521 968.502 129.274C973.539 127.979 978.744 127.043 984.116 126.468C990.592 125.796 995.845 125.197 999.874 124.669C1003.9 124.093 1006.83 123.23 1008.65 122.079C1010.52 120.879 1011.46 119.033 1011.46 116.538V116.106C1011.46 110.686 1009.85 106.489 1006.64 103.514C1003.42 100.54 998.795 99.0533 992.751 99.0533C986.371 99.0533 981.31 100.444 977.568 103.227C973.875 106.009 971.38 109.295 970.085 113.084L945.765 109.631C947.684 102.915 950.85 97.3024 955.263 92.7933C959.676 88.2362 965.072 84.8304 971.452 82.5759C977.832 80.2733 984.884 79.1221 992.607 79.1221C997.931 79.1221 1003.23 79.7457 1008.51 80.9929C1013.79 82.2401 1018.61 84.3028 1022.97 87.1809C1027.34 90.0111 1030.84 93.8726 1033.48 98.7655C1036.16 103.658 1037.51 109.774 1037.51 117.114V191.082H1012.47V175.9H1011.6C1010.02 178.97 1007.79 181.848 1004.91 184.535C1002.08 187.173 998.507 189.308 994.19 190.939C989.921 192.522 984.908 193.313 979.151 193.313ZM985.915 174.173C991.144 174.173 995.677 173.142 999.514 171.079C1003.35 168.969 1006.3 166.186 1008.36 162.733C1010.48 159.279 1011.53 155.513 1011.53 151.436V138.412C1010.72 139.084 1009.32 139.707 1007.36 140.283C1005.44 140.859 1003.28 141.362 1000.88 141.794C998.483 142.226 996.109 142.609 993.758 142.945C991.408 143.281 989.369 143.569 987.642 143.809C983.756 144.336 980.279 145.2 977.209 146.399C974.139 147.598 971.716 149.277 969.941 151.436C968.167 153.546 967.279 156.281 967.279 159.639C967.279 164.436 969.03 168.057 972.532 170.504C976.033 172.95 980.495 174.173 985.915 174.173Z" fill="#FFFDF8"/>
  <path d="M874.709 191.081V80.5596H899.965V98.9798H901.116C903.131 92.5999 906.584 87.683 911.477 84.2292C916.418 80.7274 922.055 78.9766 928.386 78.9766C929.826 78.9766 931.432 79.0485 933.207 79.1924C935.03 79.2884 936.541 79.4563 937.74 79.6961V103.657C936.637 103.273 934.886 102.937 932.488 102.649C930.137 102.314 927.859 102.146 925.652 102.146C920.903 102.146 916.634 103.177 912.844 105.24C909.103 107.254 906.153 110.061 903.994 113.658C901.835 117.256 900.756 121.405 900.756 126.106V191.081H874.709Z" fill="#FFFDF8"/>
  <path d="M805.362 193.241C794.568 193.241 785.214 190.867 777.299 186.118C769.385 181.369 763.245 174.725 758.879 166.186C754.562 157.648 752.403 147.67 752.403 136.254C752.403 124.837 754.562 114.835 758.879 106.249C763.245 97.6622 769.385 90.9945 777.299 86.2455C785.214 81.4966 794.568 79.1221 805.362 79.1221C816.155 79.1221 825.509 81.4966 833.424 86.2455C841.339 90.9945 847.455 97.6622 851.772 106.249C856.137 114.835 858.32 124.837 858.32 136.254C858.32 147.67 856.137 157.648 851.772 166.186C847.455 174.725 841.339 181.369 833.424 186.118C825.509 190.867 816.155 193.241 805.362 193.241ZM805.505 172.374C811.358 172.374 816.251 170.767 820.184 167.554C824.118 164.292 827.044 159.926 828.962 154.458C830.929 148.989 831.913 142.897 831.913 136.182C831.913 129.418 830.929 123.302 828.962 117.833C827.044 112.317 824.118 107.928 820.184 104.666C816.251 101.404 811.358 99.7729 805.505 99.7729C799.509 99.7729 794.521 101.404 790.539 104.666C786.606 107.928 783.655 112.317 781.689 117.833C779.77 123.302 778.811 129.418 778.811 136.182C778.811 142.897 779.77 148.989 781.689 154.458C783.655 159.926 786.606 164.292 790.539 167.554C794.521 170.767 799.509 172.374 805.505 172.374Z" fill="#FFFDF8"/>
  <path d="M691.691 193.241C680.61 193.241 671.04 190.939 662.981 186.334C654.97 181.681 648.806 175.109 644.489 166.618C640.172 158.08 638.013 148.03 638.013 136.469C638.013 125.101 640.172 115.123 644.489 106.537C648.854 97.9021 654.946 91.1864 662.765 86.3894C670.584 81.5445 679.77 79.1221 690.324 79.1221C697.135 79.1221 703.563 80.2254 709.607 82.432C715.699 84.5906 721.072 87.9484 725.725 92.5055C730.426 97.0626 734.12 102.867 736.806 109.918C739.492 116.922 740.835 125.269 740.835 134.958V142.945H650.245V125.388H715.867C715.819 120.4 714.74 115.963 712.629 112.077C710.519 108.144 707.569 105.049 703.779 102.795C700.037 100.54 695.672 99.4131 690.683 99.4131C685.359 99.4131 680.682 100.708 676.652 103.299C672.623 105.841 669.481 109.199 667.226 113.372C665.02 117.498 663.893 122.031 663.845 126.971V142.298C663.845 148.726 665.02 154.242 667.37 158.847C669.721 163.404 673.007 166.906 677.228 169.352C681.449 171.751 686.39 172.95 692.051 172.95C695.84 172.95 699.27 172.422 702.34 171.367C705.41 170.264 708.072 168.657 710.327 166.546C712.581 164.436 714.284 161.821 715.436 158.703L739.756 161.437C738.221 167.865 735.295 173.478 730.978 178.275C726.708 183.024 721.24 186.717 714.572 189.356C707.904 191.946 700.277 193.241 691.691 193.241Z" fill="#FFFDF8"/>
  <path d="M627.884 80.5611V100.708H564.349V80.5611H627.884ZM580.035 54.082H606.082V157.84C606.082 161.341 606.61 164.028 607.665 165.899C608.768 167.721 610.207 168.969 611.982 169.64C613.757 170.312 615.724 170.648 617.882 170.648C619.513 170.648 621 170.528 622.344 170.288C623.735 170.048 624.79 169.832 625.51 169.64L629.899 190.003C628.508 190.483 626.517 191.01 623.927 191.586C621.384 192.162 618.266 192.498 614.573 192.593C608.049 192.785 602.172 191.802 596.944 189.643C591.715 187.437 587.566 184.031 584.496 179.426C581.474 174.821 579.987 169.065 580.035 162.157V54.082Z" fill="#FFFDF8"/>
  <path d="M507.233 193.241C496.153 193.241 486.583 190.939 478.524 186.334C470.513 181.681 464.349 175.109 460.032 166.618C455.714 158.08 453.556 148.03 453.556 136.469C453.556 125.101 455.714 115.123 460.032 106.537C464.397 97.9021 470.489 91.1864 478.308 86.3894C486.127 81.5445 495.313 79.1221 505.866 79.1221C512.678 79.1221 519.106 80.2254 525.15 82.432C531.242 84.5906 536.615 87.9484 541.268 92.5055C545.969 97.0626 549.662 102.867 552.349 109.918C555.035 116.922 556.378 125.269 556.378 134.958V142.945H465.788V125.388H531.41C531.362 120.4 530.283 115.963 528.172 112.077C526.061 108.144 523.111 105.049 519.322 102.795C515.58 100.54 511.215 99.4131 506.226 99.4131C500.902 99.4131 496.225 100.708 492.195 103.299C488.166 105.841 485.024 109.199 482.769 113.372C480.563 117.498 479.435 122.031 479.387 126.971V142.298C479.387 148.726 480.563 154.242 482.913 158.847C485.264 163.404 488.549 166.906 492.771 169.352C496.992 171.751 501.933 172.95 507.593 172.95C511.383 172.95 514.813 172.422 517.883 171.367C520.953 170.264 523.615 168.657 525.87 166.546C528.124 164.436 529.827 161.821 530.978 158.703L555.299 161.437C553.764 167.865 550.838 173.478 546.52 178.275C542.251 183.024 536.783 186.717 530.115 189.356C523.447 191.946 515.82 193.241 507.233 193.241Z" fill="#FFFDF8"/>
  <path d="M281.548 43.7197H314.215L357.963 150.499H359.69L403.438 43.7197H436.106V191.082H410.49V89.8422H409.123L368.397 190.65H349.257L308.531 89.6264H307.164V191.082H281.548V43.7197Z" fill="#FFFDF8"/>
  <path d="M183.536 54.9648C187.593 50.9078 193.878 51.1467 196.477 55.4424C199.287 60.0561 201.409 65.041 202.92 70.2646C203.768 73.2345 202.787 76.7087 200.321 79.1748L120.851 158.645C116.051 163.445 110.084 166.759 103.747 168.111L97.1445 169.517C90.8337 170.895 84.8149 174.211 80.042 178.983L19.0264 239.998C16.4278 229.975 15.2882 223.213 23.4287 215.072L183.536 54.9648ZM200.748 89.2031C203.4 86.5519 207.483 88.0898 207.218 91.5898C205.574 113.015 195.365 135.581 177.175 153.771C163.307 168.966 124.167 192.194 96.1924 207.76C90.4648 210.942 85.7979 204.153 90.4912 199.46L200.721 89.2295L200.748 89.2031ZM164.179 22.831C166.698 20.312 170.41 19.7821 172.956 21.5322C178.259 25.1384 183.218 30.362 185.764 36.6728C186.718 39.1124 185.897 42.1093 183.802 44.2041L98.2061 129.8C93.4066 134.599 87.44 137.914 81.1025 139.267L74.5 140.672C68.1891 142.051 62.1695 145.365 57.3965 150.138L4.60156 202.933C2.00305 192.91 3.24942 183.762 11.3896 175.621L42.2021 144.809L164.179 22.831ZM127.903 7.61326C132.676 2.84055 139.517 0.984224 145.139 3.10545C148.665 4.4578 152.06 6.10235 155.269 8.03806C159.511 10.5838 159.722 16.7882 155.745 20.7656L77.4678 99.0429C72.9866 103.524 66.8882 105.91 61.0547 105.486C54.9294 105.036 48.4857 107.555 43.7393 112.302L0.861328 155.179C-1.73719 145.155 1.63 133.886 9.77051 125.745L23.666 111.851L127.903 7.61326ZM115.363 0.000954736C119.129 -0.0520787 120.587 4.42914 117.724 7.29295L43.1318 81.8847L34.5137 90.5019L34.4873 90.5283L21.3887 103.628L21.3086 103.708C18.5509 106.465 14.4673 103.973 16.0049 100.473L28.8398 71.3037C29.5557 69.5272 30.3506 67.724 31.2256 65.8945L31.3057 65.709C38.7038 50.0376 50.6098 33.4117 61.7998 22.2217C79.7515 4.26996 95.8736 0.18659 115.363 0.000954736Z" fill="#FFFDF8"/>
</svg>
